PathFileType  4	(X/Y/Z) C:\Users\antoi\Documents\MyRepositories\mobilecap\ResultsAnalysis
DataRate	CameraRate	NumFrames	NumMarkers	Units	OrigDataRate	OrigDataStartFrame	OrigNumFrames
100.0	100.0	4	51	mm	100.0	641	1281
Frame#	Time	r_knee			r_shank_antsup			r_ankle			r_calc			r_5meta			r_toe			L_knee			L_shank_antsup			L_ankle			L_calc			L_5meta			L_toe			r_sh2			r_sh3			r_sh4			L_sh2			L_sh3			r_thigh1			r_thigh2			r_thigh3			r_thigh4			r_thigh5			L_thigh1			L_thigh2			L_thigh3			L_thigh4			r.ASIS			r.PSIS			L.ASIS			L.PSIS			C7			R_Shoulder			L_Shoulder			R_Sternum			L_Sternum			R_humerus			R_elbow_med			R_elbow_lat			R_forearm			R_wrist_radius			R_wrist_ulna			L_humerus			L_elbow_med			L_elbow_lat			L_forearm			L_wrist_radius			L_wrist_ulna			R_HJC			L_HJC			R_HJC_reg			L_HJC_reg			
		X1	Y1	Z1	X2	Y2	Z2	X3	Y3	Z3	X4	Y4	Z4	X5	Y5	Z5	X6	Y6	Z6	X7	Y7	Z7	X8	Y8	Z8	X9	Y9	Z9	X10	Y10	Z10	X11	Y11	Z11	X12	Y12	Z12	X13	Y13	Z13	X14	Y14	Z14	X15	Y15	Z15	X16	Y16	Z16	X17	Y17	Z17	X18	Y18	Z18	X19	Y19	Z19	X20	Y20	Z20	X21	Y21	Z21	X22	Y22	Z22	X23	Y23	Z23	X24	Y24	Z24	X25	Y25	Z25	X26	Y26	Z26	X27	Y27	Z27	X28	Y28	Z28	X29	Y29	Z29	X30	Y30	Z30	X31	Y31	Z31	X32	Y32	Z32	X33	Y33	Z33	X34	Y34	Z34	X35	Y35	Z35	X36	Y36	Z36	X37	Y37	Z37	X38	Y38	Z38	X39	Y39	Z39	X40	Y40	Z40	X41	Y41	Z41	X42	Y42	Z42	X43	Y43	Z43	X44	Y44	Z44	X45	Y45	Z45	X46	Y46	Z46	X47	Y47	Z47	X48	Y48	Z48	X49	Y49	Z49	X50	Y50	Z50	X51	Y51	Z51	

641	6.40000000	-48.95710	429.80710	-323.53446	-5.69257	371.68196	-316.33620	-244.89898	100.44053	-362.80614	-305.52822	60.98466	-413.72811	-139.55325	39.69942	-302.76296	-90.20763	59.38472	-350.91513	-30.88477	422.79322	-817.44198	-21.97943	343.89027	-835.79382	-228.82118	102.08768	-796.16487	-293.47740	61.01604	-747.08062	-123.43495	40.80573	-840.59492	-74.86368	57.02971	-788.66232	-58.79083	272.01644	-334.57808	-74.47286	402.64358	-300.37508	-130.36566	300.59088	-299.29529	-93.14157	397.49586	-832.37273	-160.52929	289.51885	-824.63392	-239.30772	610.09786	-465.09912	-141.23672	583.16287	-418.86096	-147.65345	563.75914	-355.52080	-287.56718	583.26803	-368.69897	-191.91108	535.43315	-332.62492	-272.06763	595.79439	-774.96055	-159.16457	522.84183	-816.90261	-338.80614	505.84521	-786.33633	-221.13885	430.89216	-783.56233	-247.94502	633.23454	-458.61238	-406.56936	720.90915	-548.26234	-245.26026	596.79565	-683.79682	-399.70153	718.32169	-642.55736	-55.31009	1024.87541	-592.93020	7.39591	960.82441	-431.46594	11.13354	950.62565	-728.85577	6.69350	888.73303	-559.07265	8.79188	885.19030	-595.78171	34.59575	794.84061	-287.64620	21.09131	667.10406	-281.67533	49.41124	716.01363	-233.56119	139.64410	794.03842	-304.26078	173.97908	857.00043	-374.12771	208.24586	829.77271	-362.36491	36.91842	773.93461	-855.27258	40.32573	643.57686	-836.20983	59.14641	673.46459	-897.58557	151.99369	763.91108	-832.18642	187.00040	837.17970	-766.51811	221.23904	807.61480	-766.83299	-346.45309	580.83688	-486.19839	-348.68254	567.53505	-676.39184	-339.11567	574.16366	-493.98886	-328.18263	570.04454	-644.10091	
642	6.41000000	-48.54716	429.64002	-323.55284	-5.25039	371.56153	-316.25335	-244.69484	100.57664	-362.86704	-305.51866	60.97223	-413.92753	-139.53933	39.70196	-302.76989	-90.16906	59.37763	-350.92331	-30.24513	422.39355	-816.79873	-21.47743	343.52386	-835.23624	-228.77055	102.12972	-796.05038	-293.45812	61.04515	-747.03641	-123.42730	40.81132	-840.57863	-74.81797	56.99991	-788.64277	-58.49532	271.85463	-334.48197	-74.14811	402.36430	-300.55310	-129.98118	300.46857	-299.27632	-92.63427	397.34140	-832.02617	-160.33905	289.07952	-823.72310	-238.77320	610.01461	-465.18989	-140.72677	583.04351	-418.93679	-147.20302	563.63035	-355.58445	-287.26068	583.22202	-368.57091	-191.47531	535.46342	-332.52565	-271.45749	595.65941	-775.16958	-158.43217	522.44971	-816.73382	-338.20637	505.49837	-786.15854	-220.49784	430.66047	-783.55379	-247.04538	631.81471	-459.39497	-406.04196	720.76159	-548.46321	-244.70388	596.51085	-683.84541	-399.18115	718.11481	-642.70949	-54.99564	1024.84797	-592.90984	7.78022	960.65602	-431.75668	11.37217	950.75949	-729.04125	6.60197	888.02472	-559.58262	8.47306	884.58969	-596.23839	34.86478	794.53822	-287.88729	21.17856	666.85256	-281.95696	49.58807	715.69302	-233.89088	139.91966	793.59278	-304.57115	174.35486	856.60220	-374.28606	208.50629	829.20860	-362.66769	37.21115	774.04892	-855.59672	40.70958	643.69208	-836.49006	59.55091	673.57919	-897.92041	152.17928	764.19884	-832.34109	187.06831	837.47180	-766.71283	221.36920	807.94159	-767.11756	-345.97274	580.04173	-486.77606	-348.30170	567.38245	-677.01343	-338.56510	574.10873	-494.71010	-327.68117	569.91021	-644.22187	
643	6.42000000	-48.22373	429.39734	-323.68109	-4.83545	371.39630	-316.11795	-244.52822	100.72233	-362.89023	-305.51082	60.97825	-414.06896	-139.55731	39.74584	-302.78496	-90.15012	59.33831	-350.91465	-29.71310	422.13504	-816.46328	-21.08295	343.29139	-834.92172	-228.71809	102.17658	-795.97895	-293.45096	61.09111	-747.01131	-123.42267	40.81956	-840.56481	-74.76913	56.96900	-788.63605	-58.23762	271.63027	-334.52024	-73.81697	402.07836	-300.65596	-129.60006	300.46063	-299.25277	-92.13343	397.11430	-831.64365	-159.99780	288.88118	-823.24089	-238.36412	609.76108	-465.25413	-140.30685	582.92287	-418.96187	-146.78318	563.49969	-355.64587	-286.74529	583.02213	-368.72267	-191.00511	535.44244	-332.50848	-270.85289	595.50354	-775.32723	-157.86197	522.21048	-816.73875	-337.67459	505.24962	-786.03710	-219.91819	430.42119	-783.36586	-246.46613	631.68201	-459.33581	-405.62035	720.67090	-548.61568	-244.21409	596.27721	-683.82569	-398.72233	717.95394	-642.88706	-54.71173	1024.95237	-593.18065	8.16382	960.59277	-431.92267	11.60306	950.89123	-729.17565	8.05122	888.97418	-559.72380	9.75820	885.50483	-596.38319	35.13344	794.32993	-288.15872	21.26651	666.71635	-282.19129	49.76058	715.42261	-234.23075	140.21370	793.29465	-304.90794	174.74339	856.42343	-374.38395	208.77780	828.71113	-362.96744	37.48280	774.29461	-855.98038	41.12356	644.01334	-837.03598	59.93729	673.89667	-898.36552	152.34179	764.59722	-832.57055	187.17941	837.83303	-766.98961	221.53669	808.35140	-767.53512	-345.50995	579.96197	-486.77875	-347.80875	567.16179	-677.00558	-338.09672	573.98502	-494.65959	-327.15426	569.67498	-644.20064	
644	6.43000000	-47.84784	429.20670	-323.79022	-4.52685	371.19207	-316.09622	-244.48542	100.82238	-362.91898	-305.47741	61.05834	-414.13306	-139.57353	39.76975	-302.79981	-90.13920	59.29572	-350.90823	-29.22950	421.93881	-816.23971	-20.71139	343.24097	-834.93465	-228.66743	102.23330	-795.96769	-293.41459	61.19201	-747.03668	-123.41766	40.82372	-840.56222	-74.72442	56.94850	-788.63246	-58.05086	271.51592	-334.59859	-73.38867	401.92818	-300.66016	-129.34564	300.47832	-299.23475	-91.66225	396.88775	-831.25877	-159.74350	288.73157	-822.95417	-238.01440	609.59212	-465.22913	-139.94077	582.78823	-418.96741	-146.36651	563.38025	-355.66580	-286.15479	582.83995	-368.95556	-190.56062	535.30146	-332.56061	-270.33736	595.29548	-775.36510	-157.42603	522.07818	-816.74771	-337.21533	505.11094	-785.98477	-219.46056	430.17833	-783.05210	-245.98364	633.47069	-458.13924	-405.22406	720.64666	-548.73372	-243.79874	596.21850	-683.83755	-398.31747	717.88235	-643.05641	-54.37248	1025.22358	-593.79654	8.50503	960.67675	-431.98786	11.85942	951.06408	-729.30961	8.60540	889.24290	-559.87692	10.40209	885.77732	-596.64791	35.39606	794.23607	-288.38822	21.40269	666.66022	-282.49388	49.94507	715.29489	-234.45423	140.51486	793.12480	-305.20029	175.10804	856.33043	-374.46803	209.06727	828.54126	-363.13460	37.76257	774.62859	-856.28058	41.47942	644.35194	-837.57365	60.21455	674.23827	-898.69907	152.52643	765.06438	-832.90383	187.30847	838.27058	-767.38750	221.77352	808.91270	-768.08434	-344.77465	580.94914	-485.97500	-347.06998	566.87212	-676.10800	-337.45459	573.72665	-493.51041	-326.43342	569.31523	-644.03020	
